<svg width="1920" height="1601" viewBox="0 0 1920 1601" fill="none" xmlns="http://www.w3.org/2000/svg">
<path d="M900.766 1428.29C869.312 1432.42 837.858 1438.38 806.404 1440.67C626.177 1453.98 451.918 1432.42 289.598 1346.86C209.012 1304.42 141.054 1246.62 85.9522 1174.13C76.7687 1161.97 67.5851 1156.93 52.6618 1159.22C14.0907 1165.18 -24.4803 1170.23 -69.9391 1176.42C-47.8985 1209.23 -30.4497 1238.82 -9.32744 1265.65C110.748 1420.03 271.001 1503.98 462.938 1531.28C562.351 1545.5 661.533 1548.48 760.027 1523.71C848.419 1501.46 924.414 1456.73 993.29 1398.47C998.341 1394.34 1002.7 1386.77 1003.62 1380.35C1039.44 1115.18 1179.03 919.056 1405.17 781.885C1443.52 758.487 1485.99 741.742 1525.94 720.869C1532.37 717.428 1539.71 710.087 1541.09 703.435C1559.92 609.847 1558.77 516.029 1546.14 421.752C1545.68 418.77 1543.85 415.788 1540.86 408.677C1480.71 428.863 1421.25 448.819 1362.93 468.546C1424.69 432.992 1491.04 404.548 1562.44 381.381C1595.27 482.08 1610.66 583.468 1610.43 690.131C1732.8 654.806 1854.71 641.043 1981.9 650.448C1974.33 821.339 1924.05 976.173 1831.98 1119.08C1896.5 1136.74 1958.94 1153.95 2023 1171.61C2005.55 1217.48 1981.67 1256.25 1953.89 1292.49C1818.44 1470.49 1637.06 1564.31 1415.96 1586.33C1289.23 1598.95 1165.48 1583.58 1042.65 1549.17C1046.56 1549.17 1050.23 1548.71 1054.13 1549.17C1150.33 1562.94 1246.76 1572.57 1344.33 1563.62C1536.04 1545.96 1706.86 1481.73 1840.02 1336.99C1871.24 1303.04 1896.73 1263.59 1924.74 1226.43C1927.72 1222.53 1929.33 1217.25 1933.23 1209.23C1890.53 1200.05 1849.66 1191.79 1809.25 1181.93C1791.8 1177.57 1780.55 1181.24 1767.7 1194.78C1678.62 1289.05 1566.81 1346.17 1445.12 1385.62C1312.88 1428.29 1177.88 1455.58 1038.29 1458.11C1031.17 1458.11 1022.91 1462.24 1017.17 1466.82C872.526 1578.76 708.14 1615.01 528.831 1595.28C435.158 1584.96 344.011 1564.77 257.915 1525.55C96.743 1451.69 -21.4957 1334.7 -97.2603 1174.59C-99.3266 1170 -100.475 1164.96 -103 1156.7C-49.276 1149.59 2.38162 1142.93 57.024 1135.82C-35.2711 990.165 -81.8778 832.349 -88.5359 658.706C121.539 655.953 319.904 688.296 499.673 799.547C329.317 719.951 149.089 694.26 -41.0108 699.995C-37.567 721.786 -35.2711 741.284 -31.5976 760.323C-6.57236 887.401 37.968 1006.68 112.585 1113.8C122.687 1128.25 133.248 1134.22 151.615 1133.76C296.256 1129.86 438.602 1142.48 575.667 1192.48C699.645 1237.9 807.323 1307.86 890.893 1411.54C893.878 1415.21 896.633 1418.88 899.388 1422.55C900.077 1423.47 899.847 1425.08 900.307 1428.52L900.766 1428.29ZM1087.65 1300.06L1095.46 1303.04C1103.95 1295.93 1112.45 1288.59 1120.71 1281.48C1179.26 1231.94 1242.62 1189.5 1312.19 1157.16C1453.62 1091.32 1601.47 1082.84 1752.77 1107.15C1769.99 1109.9 1778.95 1106 1787.67 1090.86C1846.9 990.624 1882.49 882.355 1901.78 768.122C1904.76 749.542 1907.06 730.961 1910.04 711.464C1902.69 710.546 1898.79 709.629 1894.89 709.629C1761.27 709.858 1629.48 721.557 1502.75 767.663C1297.5 842.442 1160.43 980.99 1105.79 1195.23C1097.06 1229.41 1093.62 1265.2 1087.65 1300.06ZM822.705 1395.72C753.14 1308.55 663.6 1250.97 562.121 1210.83C429.418 1158.53 290.746 1147.52 148.63 1152.34C170.212 1198.22 274.445 1278.04 371.332 1320.71C515.055 1384.02 666.125 1404.43 822.705 1395.72ZM1729.35 1171.15C1594.59 1153.72 1465.79 1164.27 1343.41 1221.38C1245.61 1266.8 1163.42 1333.55 1084.67 1409.94C1307.83 1448.7 1637.29 1326.67 1729.35 1171.15Z" fill="#9583B1" fill-opacity="0.1"/>
<path d="M903.521 1286.76C837.17 1234.92 779.084 1175.05 728.345 1108.3C652.81 1009.43 595.183 901.853 571.076 778.674C558.448 714.217 557.3 649.301 565.566 584.156C566.484 577.045 564.188 566.264 559.137 561.906C493.704 504.79 421.613 457.766 344.012 418.771C341.716 417.624 338.961 417.394 334.139 416.247C307.277 482.31 294.42 550.666 296.946 621.775C295.109 621.775 293.272 621.775 291.436 621.775C290.976 586.68 287.303 551.354 290.747 516.717C294.65 477.263 305.211 438.498 312.099 399.502C315.083 382.069 323.349 380.922 338.501 386.198C416.792 412.807 491.638 446.755 562.581 489.421C568.78 493.091 574.979 496.302 582.785 500.661C589.902 480.704 595.871 462.354 602.759 444.691C671.177 267.377 786.431 124.471 930.613 3.12734C934.746 -0.313413 946.684 -1.23095 950.128 1.98042C1112.22 147.639 1238.49 316.465 1283.95 534.609C1294.05 583.468 1291.07 634.85 1293.59 685.314C1293.82 691.508 1291.76 697.931 1289.92 704.124C1284.18 556.86 1227.93 428.405 1146.66 308.896C1093.39 230.447 1030.94 160.026 962.067 95.1102C955.868 89.3756 949.439 83.641 943.011 77.9064C920.511 99.6979 898.241 119.654 878.267 141.446C795.844 231.135 726.508 329.311 676.917 441.25C600.693 613.288 605.973 784.179 681.738 954.611C735.003 1074.12 809.16 1179.64 895.256 1277.35C898.011 1280.57 900.996 1283.78 903.751 1286.99L903.521 1286.76Z" fill="#9583B1" fill-opacity="0.1"/>
</svg>
