<svg width="351" height="264" viewBox="0 0 351 264" fill="none" xmlns="http://www.w3.org/2000/svg">
<path d="M165.581 235.61C160.392 236.291 155.204 237.275 150.015 237.653C120.285 239.848 91.5391 236.291 64.7629 222.177C51.4694 215.177 40.259 205.641 31.1695 193.684C29.6546 191.679 28.1397 190.846 25.6779 191.225C19.3152 192.209 12.9526 193.041 5.45372 194.063C9.08953 199.474 11.9679 204.355 15.4522 208.782C35.2598 234.248 61.6952 248.097 93.357 252.6C109.756 254.946 126.117 255.438 142.365 251.351C156.946 247.681 169.482 240.302 180.844 230.691C181.677 230.01 182.397 228.761 182.548 227.702C188.456 183.96 211.483 151.607 248.788 128.979C255.113 125.12 262.119 122.358 268.709 118.914C269.77 118.347 270.982 117.136 271.209 116.039C274.314 100.6 274.125 85.124 272.042 69.5722C271.966 69.0802 271.663 68.5883 271.171 67.4153C261.248 70.7452 251.439 74.0372 241.819 77.2913C252.007 71.4263 262.952 66.7342 274.731 62.9125C280.147 79.5238 282.684 96.2487 282.646 113.844C302.833 108.017 322.943 105.746 343.925 107.298C342.675 135.488 334.381 161.029 319.194 184.603C329.836 187.517 340.138 190.354 350.704 193.268C347.826 200.836 343.887 207.231 339.304 213.209C316.959 242.572 287.04 258.049 250.568 261.681C229.662 263.762 209.248 261.227 188.986 255.551C189.63 255.551 190.236 255.475 190.88 255.551C206.749 257.822 222.656 259.411 238.752 257.935C270.376 255.021 298.553 244.426 320.519 220.55C325.67 214.95 329.874 208.442 334.495 202.312C334.987 201.668 335.252 200.798 335.896 199.474C328.852 197.96 322.11 196.598 315.444 194.971C312.566 194.252 310.71 194.857 308.589 197.09C293.895 212.642 275.451 222.064 255.378 228.572C233.563 235.61 211.294 240.113 188.267 240.529C187.093 240.529 185.729 241.21 184.783 241.967C160.923 260.432 133.805 266.411 104.227 263.157C88.7744 261.454 73.7388 258.124 59.5364 251.654C32.9495 239.47 13.4449 220.172 0.946826 193.76C0.605968 193.003 0.416603 192.171 0 190.809C8.86229 189.636 17.3837 188.538 26.3975 187.365C11.1725 163.337 3.48432 137.304 2.386 108.66C37.0398 108.206 69.7621 113.541 99.4167 131.893C71.3149 118.763 41.5846 114.525 10.2257 115.471C10.7938 119.066 11.1725 122.282 11.7785 125.423C15.9067 146.385 23.254 166.062 35.5628 183.733C37.2292 186.116 38.9713 187.1 42.0012 187.025C65.8612 186.381 89.3425 188.462 111.953 196.711C132.404 204.204 150.167 215.744 163.952 232.848C164.445 233.453 164.899 234.059 165.354 234.664C165.467 234.815 165.429 235.08 165.505 235.648L165.581 235.61ZM196.41 214.458L197.697 214.95C199.099 213.777 200.5 212.566 201.863 211.393C211.521 203.22 221.974 196.219 233.449 190.884C256.779 180.024 281.169 178.624 306.128 182.635C308.968 183.089 310.445 182.446 311.884 179.949C321.656 163.413 327.526 145.553 330.707 126.709C331.2 123.644 331.578 120.579 332.071 117.363C330.859 117.212 330.215 117.06 329.571 117.06C307.529 117.098 285.79 119.028 264.884 126.633C231.025 138.969 208.415 161.824 199.401 197.165C197.962 202.804 197.394 208.706 196.41 214.458ZM152.704 230.237C141.229 215.858 126.458 206.36 109.718 199.739C87.8276 191.111 64.9522 189.295 41.5088 190.09C45.0689 197.657 62.2633 210.825 78.2457 217.863C101.954 228.307 126.875 231.675 152.704 230.237ZM302.265 193.192C280.033 190.317 258.786 192.057 238.6 201.479C222.466 208.971 208.908 219.982 195.917 232.583C232.73 238.978 287.078 218.847 302.265 193.192Z" fill="white"/>
<path d="M166.036 212.263C155.09 203.712 145.508 193.836 137.139 182.825C124.678 166.516 115.172 148.769 111.196 128.45C109.113 117.817 108.923 107.109 110.287 96.3622C110.438 95.1892 110.059 93.4108 109.226 92.6918C98.4323 83.2699 86.5402 75.5129 73.7391 69.0803C73.3604 68.8911 72.9059 68.8532 72.1106 68.664C67.6794 79.5617 65.5585 90.8377 65.9751 102.568C65.6721 102.568 65.3692 102.568 65.0662 102.568C64.9904 96.7785 64.3845 90.9513 64.9526 85.2376C65.5964 78.7292 67.3386 72.3344 68.4747 65.9018C68.9671 63.026 70.3305 62.8368 72.8301 63.7071C85.7448 68.0965 98.0915 73.6966 109.794 80.7347C110.817 81.3401 111.839 81.8699 113.127 82.5888C114.301 79.2968 115.286 76.2697 116.422 73.3561C127.708 44.1065 146.72 20.5328 170.505 0.515885C171.186 -0.0517006 173.156 -0.203057 173.724 0.32669C200.462 24.3545 221.292 52.204 228.791 88.189C230.458 96.2487 229.965 104.725 230.382 113.049C230.42 114.071 230.079 115.13 229.776 116.152C228.829 91.8594 219.55 70.6695 206.143 50.9554C197.357 38.0144 187.055 26.3978 175.693 15.6894C174.671 14.7434 173.61 13.7974 172.55 12.8514C168.838 16.4461 165.165 19.7381 161.87 23.3328C148.273 38.1279 136.836 54.323 128.655 72.7885C116.081 101.168 116.952 129.358 129.45 157.472C138.237 177.186 150.47 194.592 164.672 210.712C165.127 211.242 165.619 211.771 166.074 212.301L166.036 212.263Z" fill="white"/>
</svg>
