<svg width="197" height="197" viewBox="0 0 197 197" fill="none" xmlns="http://www.w3.org/2000/svg">
<circle cx="98.5" cy="98.5" r="98.5" fill="#9583B1"/>
<path d="M92.6009 133.962C90.7959 134.199 88.9909 134.541 87.186 134.673C76.8436 135.436 66.8438 134.199 57.5292 129.289C52.9048 126.854 49.005 123.537 45.843 119.377C45.316 118.68 44.789 118.39 43.9326 118.522C41.7192 118.864 39.5058 119.154 36.8972 119.509C38.162 121.391 39.1633 123.089 40.3754 124.629C47.2659 133.488 56.462 138.306 67.4762 139.872C73.181 140.688 78.8726 140.86 84.5246 139.438C89.597 138.161 93.9579 135.594 97.9104 132.251C98.2002 132.014 98.4505 131.58 98.5032 131.211C100.559 115.994 108.569 104.74 121.546 96.8683C123.746 95.5257 126.184 94.5648 128.476 93.3669C128.845 93.1695 129.267 92.7483 129.346 92.3665C130.426 86.996 130.36 81.6123 129.636 76.2022C129.609 76.0311 129.504 75.86 129.333 75.4519C125.881 76.6103 122.468 77.7555 119.122 78.8875C122.666 76.8472 126.474 75.215 130.571 73.8855C132.455 79.6641 133.338 85.4822 133.325 91.6031C140.347 89.576 147.343 88.7862 154.642 89.3259C154.207 99.1324 151.322 108.018 146.038 116.218C149.741 117.232 153.324 118.219 157 119.232C155.999 121.865 154.629 124.09 153.034 126.169C145.261 136.384 134.853 141.768 122.165 143.031C114.893 143.755 107.792 142.873 100.743 140.899C100.967 140.899 101.178 140.873 101.402 140.899C106.922 141.689 112.456 142.242 118.055 141.728C129.056 140.715 138.858 137.029 146.5 128.723C148.291 126.775 149.754 124.511 151.361 122.378C151.532 122.155 151.625 121.852 151.849 121.391C149.398 120.865 147.053 120.391 144.734 119.825C143.733 119.575 143.087 119.785 142.349 120.562C137.238 125.972 130.821 129.25 123.839 131.514C116.25 133.962 108.503 135.528 100.493 135.673C100.084 135.673 99.6099 135.91 99.2806 136.173C90.9803 142.597 81.5471 144.677 71.2575 143.545C65.8821 142.952 60.6516 141.794 55.711 139.543C46.4622 135.305 39.6771 128.591 35.3294 119.404C35.2108 119.14 35.1449 118.851 35 118.377C38.0829 117.969 41.0473 117.587 44.1829 117.179C38.8866 108.82 36.2121 99.7642 35.83 89.7997C47.8851 89.6418 59.2682 91.4978 69.5842 97.8819C59.8084 93.3143 49.4661 91.84 38.5572 92.1691C38.7549 93.4196 38.8866 94.5385 39.0974 95.631C40.5335 102.923 43.0894 109.768 47.3713 115.915C47.951 116.745 48.557 117.087 49.611 117.061C57.9112 116.837 66.0797 117.561 73.9451 120.43C81.0596 123.037 87.2387 127.051 92.0343 133.001C92.2056 133.212 92.3637 133.422 92.5218 133.633C92.5613 133.686 92.5482 133.778 92.5745 133.975L92.6009 133.962ZM103.325 126.604L103.773 126.775C104.261 126.367 104.748 125.946 105.222 125.538C108.582 122.694 112.218 120.259 116.21 118.403C124.326 114.625 132.811 114.138 141.493 115.534C142.481 115.692 142.995 115.468 143.496 114.599C146.895 108.847 148.937 102.634 150.044 96.0785C150.215 95.0123 150.347 93.9461 150.518 92.8272C150.096 92.7746 149.872 92.7219 149.648 92.7219C141.981 92.7351 134.418 93.4064 127.146 96.0522C115.367 100.343 107.502 108.294 104.366 120.588C103.865 122.55 103.668 124.603 103.325 126.604ZM88.1214 132.093C84.1294 127.091 78.9911 123.787 73.1678 121.483C65.5527 118.482 57.595 117.85 49.4397 118.127C50.6782 120.759 56.6596 125.34 62.2194 127.789C70.467 131.422 79.1361 132.593 88.1214 132.093ZM140.149 119.206C132.416 118.206 125.024 118.811 118.002 122.089C112.39 124.695 107.673 128.526 103.154 132.909C115.96 135.134 134.866 128.131 140.149 119.206Z" fill="white"/>
<path d="M92.7589 125.84C88.9513 122.865 85.6181 119.43 82.7064 115.599C78.3718 109.926 75.0649 103.753 73.6816 96.684C72.9569 92.9852 72.8911 89.26 73.3654 85.5217C73.4181 85.1136 73.2863 84.4949 72.9965 84.2449C69.2416 80.9672 65.1047 78.2688 60.6515 76.0311C60.5198 75.9652 60.3617 75.9521 60.085 75.8863C58.5435 79.6772 57.8057 83.5999 57.9507 87.6804C57.8453 87.6804 57.7399 87.6804 57.6345 87.6804C57.6081 85.6665 57.3973 83.6393 57.5949 81.6517C57.8189 79.3877 58.425 77.1631 58.8202 74.9254C58.9915 73.925 59.4658 73.8591 60.3353 74.1619C64.828 75.6888 69.123 77.637 73.1941 80.0853C73.5498 80.2959 73.9055 80.4802 74.3535 80.7303C74.7619 79.5851 75.1044 78.532 75.4997 77.5185C79.4258 67.3434 86.0397 59.1428 94.3135 52.1795C94.5507 51.982 95.2358 51.9294 95.4334 52.1136C104.735 60.4722 111.981 70.1603 114.59 82.6784C115.169 85.4822 114.998 88.4307 115.143 91.3266C115.156 91.682 115.038 92.0506 114.932 92.406C114.603 83.9553 111.375 76.5839 106.711 69.7259C103.655 65.2241 100.071 61.183 96.1185 57.4579C95.7628 57.1288 95.3939 56.7997 95.025 56.4706C93.7338 57.7211 92.4558 58.8663 91.3096 60.1168C86.5798 65.2636 82.601 70.8974 79.7552 77.321C75.3811 87.1934 75.6841 96.9999 80.0319 106.78C83.0885 113.638 87.344 119.693 92.2846 125.301C92.4427 125.485 92.6139 125.669 92.772 125.854L92.7589 125.84Z" fill="white"/>
</svg>
